<?xml version="1.0" encoding="utf-8"?>
<!-- Generator: Adobe Illustrator 22.0.1, SVG Export Plug-In . SVG Version: 6.00 Build 0)  -->
<svg version="1.1" id="Layer_1" xmlns="http://www.w3.org/2000/svg" xmlns:xlink="http://www.w3.org/1999/xlink" x="0px" y="0px"
	 viewBox="0 0 300 55.4" style="enable-background:new 0 0 300 55.4;" xml:space="preserve">
<style type="text/css">
	.st0{fill:#FFFFFF;}
</style>
<polygon class="st0" points="64.1,8.8 59.6,13.3 75.6,29.2 59.6,45.2 64.1,49.7 84.6,29.2 "/>
<rect x="31.5" y="14.8" transform="matrix(0.7071 -0.7071 0.7071 0.7071 -7.2056 41.0835)" class="st0" width="29" height="29"/>
<g>
	<path class="st0" d="M113.6,44.5l-2.2-7.2h-11l-2.2,7.2h-7L101.9,14h7.9l10.8,30.5H113.6z M109.8,31.9c-2.1-6.5-3.1-10.3-3.4-11.1
		c-0.2-0.8-0.5-1.6-0.6-2.1c-0.5,1.7-1.7,6.1-3.9,13.2H109.8z"/>
	<path class="st0" d="M145.2,44.5h-6.3V31c0-1.7-0.3-2.9-0.9-3.7c-0.6-0.8-1.6-1.2-2.8-1.2c-1.7,0-3.1,0.6-3.8,1.7
		c-0.7,1.2-1.2,3.1-1.2,5.9v10.9h-6.3V21.4h4.8l0.8,3h0.3c0.7-1.2,1.7-2,2.9-2.6c1.2-0.6,2.6-0.8,4.2-0.8c2.7,0,4.7,0.7,6.1,2.2
		c1.4,1.4,2.1,3.6,2.1,6.3V44.5z"/>
	<path class="st0" d="M147.8,21.3h7l4.4,13.1c0.4,1.2,0.7,2.5,0.7,4.1h0.2c0.2-1.4,0.4-2.7,0.9-4.1l4.3-13.1h6.8l-9.9,26.2
		c-0.9,2.4-2.2,4.2-3.8,5.5c-1.7,1.2-3.6,1.8-5.9,1.8c-1.1,0-2.2-0.1-3.2-0.3v-5.1c0.7,0.2,1.6,0.2,2.5,0.2c1.2,0,2.1-0.3,2.9-1
		c0.8-0.7,1.5-1.7,2-3.1l0.4-1.2L147.8,21.3z"/>
	<path class="st0" d="M200.9,29c0,5-1.4,8.8-4.2,11.5c-2.8,2.7-7,4-12.3,4h-8.6V14.2h9.5c5,0,8.8,1.3,11.5,3.9
		C199.5,20.7,200.9,24.3,200.9,29z M194.2,29.1c0-6.5-2.9-9.8-8.6-9.8h-3.4v19.7h2.7C191.1,39.2,194.2,35.8,194.2,29.1z"/>
	<path class="st0" d="M216.1,44.9c-3.7,0-6.6-1-8.8-3.1c-2.1-2.1-3.1-5-3.1-8.8c0-3.9,1-6.9,2.9-9c1.9-2.2,4.6-3.1,8-3.1
		c3.3,0,5.8,0.9,7.6,2.8c1.8,1.9,2.7,4.5,2.7,7.7v3.1h-15c0.1,1.8,0.6,3.2,1.6,4.2c1,1,2.4,1.5,4.2,1.5c1.4,0,2.7-0.2,4-0.4
		c1.2-0.3,2.6-0.7,3.9-1.4v4.9c-1.1,0.6-2.3,1-3.6,1.2C219.5,44.7,218,44.9,216.1,44.9z M215.2,25.3c-1.3,0-2.4,0.4-3.1,1.2
		c-0.7,0.8-1.2,2.1-1.3,3.6h8.9c0-1.6-0.4-2.7-1.2-3.6C217.6,25.7,216.6,25.3,215.2,25.3z"/>
	<path class="st0" d="M246.9,37.6c0,2.4-0.8,4.2-2.5,5.5c-1.7,1.2-4.1,1.9-7.5,1.9c-1.7,0-3.1-0.1-4.3-0.3c-1.2-0.2-2.3-0.6-3.3-1
		v-5.2c1.2,0.6,2.5,1,4,1.4c1.5,0.4,2.7,0.6,3.9,0.6c2.3,0,3.5-0.7,3.5-2c0-0.5-0.2-0.9-0.5-1.2c-0.3-0.3-0.8-0.7-1.6-1.1
		c-0.7-0.4-1.7-0.8-3-1.4c-1.8-0.7-3.1-1.4-3.9-2.1c-0.8-0.7-1.4-1.3-1.8-2.2c-0.4-0.8-0.6-1.8-0.6-3.1c0-2.1,0.8-3.6,2.4-4.8
		c1.6-1.2,3.9-1.7,6.8-1.7c2.8,0,5.5,0.6,8.1,1.8l-1.9,4.6c-1.2-0.5-2.2-0.9-3.2-1.2c-1-0.3-2.1-0.5-3.1-0.5c-1.9,0-2.8,0.5-2.8,1.5
		c0,0.6,0.3,1.1,0.9,1.5c0.6,0.4,1.9,1,4,1.8c1.8,0.7,3.1,1.4,4,2.1c0.8,0.7,1.5,1.4,1.9,2.2C246.7,35.4,246.9,36.4,246.9,37.6z"/>
	<path class="st0" d="M257,31.9l2.7-3.6l6.5-7h7.1l-9.2,10l9.9,13.2h-7.3l-6.7-9.4l-2.7,2.2v7.2h-6.3V12.2h6.3v14.4L257,31.9
		C256.9,31.9,257,31.9,257,31.9z"/>
</g>
</svg>
