<?xml version="1.0" encoding="utf-8"?>
<!-- Generator: Adobe Illustrator 22.0.1, SVG Export Plug-In . SVG Version: 6.00 Build 0)  -->
<svg version="1.1" id="Camada_1" xmlns="http://www.w3.org/2000/svg" xmlns:xlink="http://www.w3.org/1999/xlink" x="0px" y="0px"
	 viewBox="0 0 36 36" style="enable-background:new 0 0 36 36;" xml:space="preserve">
<style type="text/css">
	.st0{display:none;}
	.st1{display:inline;fill:#FFFFFF;}
	.st2{fill:#FFFFFF;}
</style>
<g class="st0">
	<path class="st1" d="M9,28.1v6.8h18v-6.8v-4.5H9V28.1z M11.3,25.9h13.5v2.2H11.3V25.9z M11.3,30.4h13.5v2.2H11.3V30.4z"/>
	<polygon class="st1" points="27,7.9 27,1.1 9,1.1 9,7.9 9,12.4 27,12.4 	"/>
	<path class="st1" d="M31.5,7.9h-2.3v4.5v2.3H6.8v-2.3V7.9H4.5C2.3,7.9,0,10.1,0,12.4v11.3c0,2.2,2.3,4.5,4.5,4.5h2.2v-4.5v-2.3
		h22.5v2.3v4.5h2.3c2.2,0,4.5-2.2,4.5-4.5V12.4C36,10.1,33.7,7.9,31.5,7.9"/>
</g>
<g class="st0">
	<path class="st1" d="M33.6,8.4H25v10.8c0,1.9-1.7,3.5-3.7,3.5H10v0.2c0,1.2,1.1,2.2,2.4,2.2h16.5l4.5,4.9L33,25.1h0.6
		c1.3,0,2.4-1,2.4-2.2V10.6C36,9.4,34.9,8.4,33.6,8.4"/>
	<path class="st1" d="M21.3,21.2c1.2,0,2.2-0.9,2.2-2V8.1c0-1.1-1-2-2.2-2H2.2C1,6.1,0,7,0,8.1v11.1c0,1.1,1,2,2.2,2h0.5l-0.3,4.4
		l4-4.4H21.3z"/>
</g>
<g class="st0">
	<path class="st1" d="M22.5,8.9c0.3-0.2,0.4-0.6,0.4-1V4.7c0.9-0.4,1.4-1.2,1.4-2.3c0-1.4-1.1-2.5-2.5-2.5c-1.3,0-2.4,1.1-2.4,2.5
		c0,1.1,0.7,2,1.7,2.3v2.8c0,0.1-0.1,0.2-0.1,0.3l-2.5,2.2c-0.1,0.1-0.1,0.1-0.2,0.1H3.2c-0.5,0-0.9,0.4-0.9,0.9
		c0,0.5,0.4,0.9,0.9,0.9h15.4c0.3,0,0.6-0.1,0.8-0.3L22.5,8.9z M22.9,2.5c0,0.3-0.1,0.5-0.3,0.7c-0.2,0.2-0.5,0.3-0.8,0.3
		c-0.2,0-0.5-0.1-0.7-0.2c-0.2-0.2-0.4-0.5-0.4-0.8c0-0.6,0.5-1,1-1C22.4,1.4,22.9,1.9,22.9,2.5"/>
	<path class="st1" d="M20.2,16.5l3.6-3.6c0.1-0.1,0.2-0.1,0.3-0.1h4.8c0.3,1,1.3,1.7,2.3,1.7c1.4,0,2.5-1.1,2.5-2.5
		c0-1.4-1.1-2.5-2.5-2.5c-0.9,0-1.8,0.5-2.2,1.4h-5.4c-0.2,0-0.5,0.1-0.6,0.3l-3.6,3.6c-0.1,0.1-0.2,0.1-0.3,0.1H3.2
		c-0.5,0-0.9,0.4-0.9,0.9c0,0.5,0.4,0.9,0.9,0.9h16.3C19.8,16.7,20.1,16.6,20.2,16.5 M30.2,12c0-0.6,0.5-1,1-1c0.6,0,1,0.5,1,1
		c0,0.6-0.5,1-1,1C30.6,13,30.2,12.6,30.2,12"/>
	<path class="st1" d="M33.7,24.2c0-1.4-1.1-2.5-2.5-2.5c-1.1,0-2,0.6-2.3,1.6h-4.8c-0.1,0-0.1,0-0.2-0.1l-3.6-3.6
		c-0.2-0.2-0.4-0.3-0.6-0.3H3.2c-0.5,0-0.9,0.4-0.9,0.9c0,0.5,0.4,0.9,0.9,0.9h15.8c0.1,0,0.2,0,0.3,0.1l3.6,3.6
		c0.2,0.2,0.4,0.3,0.6,0.3h5.4c0.4,0.9,1.3,1.5,2.3,1.5C32.6,26.7,33.7,25.6,33.7,24.2 M30.2,24.2c0-0.6,0.5-1,1-1c0.6,0,1,0.5,1,1
		c0,0.6-0.5,1-1,1C30.6,25.2,30.2,24.7,30.2,24.2"/>
	<path class="st1" d="M24.4,33.5c0-1-0.6-1.9-1.4-2.3v-3.1c0-0.3-0.1-0.6-0.4-0.9l-3.1-3c-0.2-0.2-0.5-0.3-0.8-0.3H3.2
		c-0.5,0-0.9,0.4-0.9,0.9c0,0.5,0.4,0.9,0.9,0.9h15.1c0.1,0,0.1,0,0.2,0.1l2.6,2.5c0,0,0.1,0.1,0.1,0.2v2.7c-1,0.3-1.7,1.3-1.7,2.3
		c0,1.4,1.1,2.5,2.5,2.5C23.2,36,24.4,34.9,24.4,33.5 M20.8,33.5c0-0.6,0.5-1,1-1c0.6,0,1,0.5,1,1c0,0.6-0.5,1-1,1
		C21.3,34.6,20.8,34.1,20.8,33.5"/>
</g>
<g class="st0">
	<path class="st1" d="M16,10.5l-0.2-0.1c0.8-2.7,0.1-5.8-2.1-7.9C11.7,0.4,8.7-0.3,6,0.4L10.6,5L9.4,9.5l-4.5,1.2L0.3,6.1
		c-0.7,2.7,0,5.7,2.1,7.8c2.2,2.2,5.4,2.9,8.2,2l0,0l18.8,18.8c0.7,0.7,1.7,1.1,2.7,1.1c1,0,2-0.4,2.7-1.1c1.5-1.5,1.5-3.9,0-5.4
		L16,10.5z M32.5,34.1c-0.8,0-1.5-0.7-1.5-1.5c0-0.8,0.7-1.5,1.5-1.5c0.8,0,1.5,0.7,1.5,1.5C34,33.5,33.3,34.1,32.5,34.1z"/>
</g>
<g class="st0">
	<path class="st1" d="M0,26.7v1.1c0,0.6,0.5,1.1,1.1,1.1h33.8c0.6,0,1.1-0.5,1.1-1.1v-1.1H0z"/>
	<path class="st1" d="M31.4,7.1H4.6C4,7.1,3.5,7.6,3.5,8.2v18.9c0,0.6,0.5,1.1,1.1,1.1h26.9c0.6,0,1.1-0.5,1.1-1.1V8.2
		C32.5,7.6,32,7.1,31.4,7.1z M31.5,25.4c0,0.1-0.1,0.2-0.2,0.2H4.8c-0.1,0-0.2-0.1-0.2-0.2v-17c0-0.1,0.1-0.2,0.2-0.2h26.4
		c0.1,0,0.2,0.1,0.2,0.2V25.4z"/>
</g>
<path class="st2" d="M17.9,36c0,0-3.3-2.3-6.6-5.7C2,20.8,3.3,6,3.3,6L18,0l14.7,6c0,0,1.2,14.8-8,24.3c-3.3,3.4-6.6,5.7-6.6,5.7"/>
</svg>
