<svg xmlns="http://www.w3.org/2000/svg" viewBox="0 0 420.5 441.5"><path d="M131.8 66.6c-10.6 4.5-20 10.8-28 18.7s-14.4 17.2-19 27.7c-4.6 10.6-6.9 22.1-6.9 34.3v87.9h56.3v-87.9c0-4.4.8-8.5 2.4-12.2 1.7-3.8 3.9-7.2 6.8-10.1s6.3-5.2 10.1-6.8c3.7-1.6 7.8-2.4 12.2-2.4H194v-56h-28.2c-11.9-.1-23.3 2.2-34 6.8zm210.8 79v-56h-59.7V0h-56v147.2c0 11.9 2.3 23.4 6.9 34.1a88.15 88.15 0 0 0 18.9 28c8 8 17.5 14.4 28 18.9 10.7 4.6 22.1 6.9 34.1 6.9h27.8v-56h-27.8c-4.4 0-8.6-.8-12.4-2.4-3.9-1.6-7.3-3.9-10.2-6.8-2.8-2.8-5.1-6.3-6.8-10.2-1.6-3.9-2.4-8.1-2.4-12.4v-1.7h59.6zM0 295.9h297.2v1.6H0z" fill="#83b850"/><path d="M0 347.4h7.4c.1 3.7 2 5.4 5.1 5.4 3.3 0 4.9-1.9 4.9-4.6 0-7.4-16.5-8-16.5-20.4 0-6.1 4.3-10.7 11.6-10.7s11.8 4.5 11.8 11.8h-7.4c-.1-3.3-1.7-4.9-4.5-4.9-2.7 0-4.3 1.5-4.3 3.9 0 7.2 16.7 7.4 16.7 20.3 0 6.4-4.5 11.5-12.4 11.5-7.5.1-12.3-4.4-12.4-12.3zm45.2-1.2V318h7.3v28.3c0 4.3 1.9 6.4 5.2 6.4s5.2-2.2 5.2-6.4V318h7.3v28.3c0 8.5-4.7 13.4-12.5 13.4-7.7 0-12.5-5-12.5-13.5zm71.4-14.6c0 8.6-4.9 13.6-13.1 13.6h-4.2V359h-7.2v-41h11.4c8.3 0 13.1 5 13.1 13.6zm-7.4 0c0-4.5-1.9-6.8-5.8-6.8h-4.1v13.6h4.1c3.9 0 5.8-2.3 5.8-6.8zm27.7 14.2v-14.7c0-8.7 4.8-13.9 13-13.9 8.1 0 12.9 5.2 12.9 13.9v14.7c0 8.7-4.8 13.9-12.9 13.9-8.2 0-13-5.2-13-13.9zm18.4 0v-14.7c0-4.5-1.8-6.9-5.5-6.9-3.6 0-5.5 2.5-5.5 6.9v14.7c0 4.5 1.9 6.9 5.5 6.9s5.5-2.4 5.5-6.9zm39.4-1.1h-3.3V359h-7.2v-41h11.3c8 0 12.7 4.9 12.7 13.2 0 6-2.3 10.2-6.4 12.2l8.3 15.6H202l-7.3-14.3zm-3.3-6.9h4c3.5 0 5.3-2.3 5.3-6.6 0-4.2-1.9-6.4-5.3-6.4h-4v13zm59.9-13H243V359h-7.4v-34.2h-8.3V318h23.9v6.8zm41.7 27.4v6.8h-21.2v-41h20.6v6.8H279v10.1h12.3v6.6H279v10.7h14z" fill="#60813b"/><path d="M369.3 355.7v3.3h-19.8v-41h19.1v3.3h-15.5v15.2h14.5v3.3h-14.5v15.8h16.2zm51.2-37.7v41h-3.6v-21.7c0-4.3.1-8 .4-11.6l-.2-.1-4.2 10.8-5 12.9h-3.6l-9.2-23.7-.2.1c.2 3.6.4 7.3.4 11.6V359h-3.6v-41h3.9l7.3 17.7c1.1 2.6 2.5 6.9 3.3 9.1h.2c.8-2.3 2.2-6.5 3.3-9.1L417 318h3.5z" fill="#83b850"/><path d="M5.3 378.4h7.2v41H5.3v-41zm25.9 0h7.2l8.6 19.3 3.3 8.4.2-.2c-.6-4.6-1-11.3-1-15v-12.5h7.1v41h-7.2l-7.9-17.8-3.8-10-.2.2c.5 4.6.9 11.6.9 15.9v11.8h-7.1v-41.1zm51.2 6.8v10.3h11.5v6.6H82.4v17.4h-7.2v-41H95v6.8H82.4zm28.8 21v-14.7c0-8.7 4.8-13.9 13-13.9 8.1 0 12.9 5.2 12.9 13.9v14.7c0 8.7-4.8 13.9-12.9 13.9-8.2 0-13-5.2-13-13.9zm18.4 0v-14.7c0-4.5-1.8-6.9-5.5-6.9-3.6 0-5.5 2.5-5.5 6.9v14.7c0 4.5 1.9 6.9 5.5 6.9 3.7 0 5.5-2.4 5.5-6.9zm35.9-1.1h-3.3v14.3H155v-41h11.3c8 0 12.7 4.9 12.7 13.2 0 6-2.3 10.2-6.4 12.2l8.3 15.6H173l-7.5-14.3zm-3.2-6.9h4c3.5 0 5.3-2.3 5.3-6.6 0-4.2-1.9-6.4-5.3-6.4h-4v13zm69.1-19.8v41h-7.1v-12.8l.6-14.1-.3-.1-3.8 10.8-2.8 7.3h-7.2l-2.8-7.3-3.8-10.8-.3.1.6 14.1v12.8h-7v-41h7.3l6.7 16.1 2.8 7.6h.2c.5-1.7 2-5.5 2.9-7.6l6.6-16.1h7.4zm35.3 33.6h-9.6l-1.6 7.4H248l10.1-41h7.7l10.1 41h-7.5l-1.7-7.4zm-3.6-37.6h-5l5.5-7.7h6l-6.5 7.7zm2.1 30.7l-1.6-7.6c-.6-2.8-1.2-7.3-1.6-10.1h-.2c-.4 2.8-1 7.3-1.6 10.1l-1.6 7.6h6.6zm45.4-19.9h-8.3v34.2H295v-34.2h-8.3v-6.9h23.9v6.9zm16.9-6.8h7.2v41h-7.2v-41zm25.2 28.7v-16.4c0-8.5 4.6-13.1 12.3-13.1 7.9 0 12.3 4.6 12.7 13h-7.2c-.2-4.2-2-6-5.5-6-3 0-4.8 1.9-4.8 6.2v16.4c0 4.1 1.8 6 4.9 6 3.6 0 5.3-1.8 5.6-5.9h7.2c-.3 8.3-4.9 12.9-12.8 12.9-7.7-.1-12.4-4.7-12.4-13.1zm58.2 4.9h-9.6l-1.6 7.4h-7.5l10.1-41h7.7l10.1 41h-7.5l-1.7-7.4zm-1.5-6.9l-1.6-7.6c-.6-2.8-1.2-7.3-1.6-10.1h-.2c-.4 2.8-1 7.3-1.6 10.1l-1.6 7.6h6.6z" fill="#60813b"/><path d="M123.3 439.9h297.2v1.6H123.3z" fill="#83b850"/></svg>