<?xml version="1.0" encoding="utf-8"?>
<!-- Generator: Adobe Illustrator 22.0.1, SVG Export Plug-In . SVG Version: 6.00 Build 0)  -->
<svg version="1.1" id="Camada_1" xmlns="http://www.w3.org/2000/svg" xmlns:xlink="http://www.w3.org/1999/xlink" x="0px" y="0px"
	 viewBox="0 0 36 36" style="enable-background:new 0 0 36 36;" xml:space="preserve">
<style type="text/css">
	.st0{fill:#FFFFFF;}
</style>
<g id="XMLID_702_">
	<g>
		<g id="XMLID_23_">
			<path id="XMLID_25_" class="st0" d="M7.3,11.1c-1.4,0.6-2.7,1.5-3.8,2.5c-1.1,1.1-2,2.3-2.6,3.8C0.3,18.8,0,20.4,0,22v12h7.7V22
				c0-0.6,0.1-1.2,0.3-1.7c0.2-0.5,0.5-1,0.9-1.4c0.4-0.4,0.9-0.7,1.4-0.9c0.5-0.2,1.1-0.3,1.7-0.3h3.8v-7.6H12
				C10.3,10.1,8.8,10.4,7.3,11.1z"/>
			<path id="XMLID_24_" class="st0" d="M36,21.8v-7.6h-8.1V2h-7.6v20c0,1.6,0.3,3.2,0.9,4.6c0.6,1.4,1.5,2.7,2.6,3.8
				c1.1,1.1,2.4,2,3.8,2.6c1.5,0.6,3,0.9,4.6,0.9H36v-7.6h-3.8c-0.6,0-1.2-0.1-1.7-0.3c-0.5-0.2-1-0.5-1.4-0.9
				c-0.4-0.4-0.7-0.9-0.9-1.4c-0.2-0.5-0.3-1.1-0.3-1.7v-0.2H36z"/>
		</g>
	</g>
</g>
</svg>
