<svg xmlns="http://www.w3.org/2000/svg" viewBox="0 0 4507.2 1024.1" fill="#fff"><path d="M411.8 368.4l-38 92.1h279.1l-38-92.1L898.3 512 614.9 655.5l38-92.1H373.8l37.7 92.1L127.3 512zm552.4 655.7H60c-33.1-.1-59.9-26.9-60-60V60C.1 26.9 26.9.1 60 0h904.2c33.1.1 59.9 26.9 60 60v904.1c-.1 33.1-26.9 59.9-60 60zM508.2 90C277.6 92 91.7 281.2 90 512c-1.7 235 186.9 421.8 422 422 231 .1 418-192 422-422 4.2-237.7-188-424.1-425.8-422zm852.1 638.9V375.1h-126.2v-82h355.4v82h-126.1v353.8zm318.4 11.1c-26.6 0-76.1-5-108.6-38.7-26.4-27.5-39.8-67.8-39.8-119.6 0-66.7 21.6-115.5 64.1-145 25.2-16.8 55.2-25.7 86.6-25.7 33 0 93 9.7 124.9 74.8 21.4 43.5 19.2 91 18.2 111.4l-.3 5.5h-198.6c.8 30.6 8.5 67.7 54.6 67.7 25.2 0 39.8-11.7 46-36.7l1.1-4.4h90l-.5 6.3c-1 12.1-3.4 40.4-29.7 68-21.9 23.2-61.3 36.4-108 36.4zm45.1-203.4c-1.1-26.2-10.4-54.8-45.7-54.8-38.1 0-47.4 34.5-49.5 54.8h95.2zm245.3 199.3c-46.2 0-66.6-14.3-77.9-25.1-17.6-17.6-27.6-42.8-27.6-69.3 0-24.9 8.6-70.8 66.1-97.4 35.2-15.9 84.3-16.9 114-17-.1-15.3-.9-23-3.8-31.7-6.9-19.7-28.9-20.7-33.3-20.7-11.6 0-22.1 5.2-28.1 13.9-5.4 8.4-5.4 16.6-5.4 23.1v5.8h-96.9l.2-6c.6-14.9 1.8-49.9 35.9-74.3 23.3-16.7 54.6-25.1 93.2-25.1 28.2 0 79.9 5.2 110 40.1 21.9 26.5 21.9 64.1 21.9 76.5l.6 119.3c0 28 2.3 52.2 6.9 73.9l1.5 7h-90.7l-.8-4.9c-1.3-8.3-2.2-16.6-2.7-25-32.4 37-68.6 36.9-83.1 36.9zm63.1-147.4c-35.1 0-72.6 11.3-72.6 43.1 0 17.6 11.4 36.5 36.5 36.5 12.5-.1 24.4-5.5 32.6-15 13.1-16.2 14.8-36.2 15-64.2-3.9-.3-7.8-.4-11.5-.4zm549.7 140.4V548.8c0-36.7-7.5-61.1-44.1-61.1-44.1 0-47.6 37.7-47.6 86.9v154.2h-99V547.1c0-28.7-3.3-59.4-42.9-59.4-48.8 0-48.8 41.3-48.8 61.1v180.1h-99V482.5c0-16.5-.9-34-2.9-55.2l-.6-6.3h95.6l2.2 28.8c13.6-15.2 39.3-35.3 86.9-35.3 31.3 0 71.7 8.8 93.8 49.1 20.6-32.7 51.6-48.5 94.6-48.5 61.1 0 87.1 35.3 95.4 50.5 15.6 25.4 15.5 60 15.4 85.2v178l-99 .1zm287 0l-159.2-435.2h54.1l132.6 375.5 130.9-375.5h50.4l-157.3 435.2zm245.9 0V422.8h46.8v306.1h-46.8zm-3-379.7v-55.6h52.6v55.6h-52.6zm245.3 388.5c-93.2 0-134.9-81.3-134.9-161.9 0-78 42.9-161.9 137.2-161.9 90.4 0 140.1 60.4 140.1 170.1v5.8H3272c1.8 35.5 15.8 104 96.1 104 38.3 0 71-27.1 79.4-65.9l1-4.5h49.1l-1.9 7.2c-18.4 72.1-63.8 107.1-138.6 107.1zm92.3-191.7c-6.1-56.2-38.4-88.2-89.3-88.2-55.1 0-80.5 46.2-86.3 88.2h175.6zM3846 728.9l-87-244.4-88.6 244.4h-43.9l-112.2-306.1h51.1l84.6 238.4 85.7-238.4h49.8l83.3 235.8 81.6-235.8h51.1l-114 306.1zm302.7 8.8c-93.2 0-134.9-81.3-134.9-161.9 0-78 42.9-161.9 137.2-161.9 90.4 0 140.1 60.4 140.1 170.1v5.8h-227.5c1.8 35.5 15.8 104 96.1 104 38.3 0 71-27.1 79.5-65.9l1-4.5h49.1l-1.9 7.2c-18.5 72.1-63.9 107.1-138.7 107.1zM4241 546c-6.1-56.2-38.4-88.2-89.3-88.2-55.1 0-80.5 46.2-86.3 88.2H4241zm116.7 182.9v-234c.4-17.2-.8-35.1-1.9-50.8l-1.4-21.2h48l1.1 28.5c14.2-22 37.4-36.3 62.3-37.3 3.5-.2 7-.3 10.5-.3 8.4 0 16.9.4 25.1.8l5.5.3.1 5.5v40.3l-6.3-.5c-2.9-.2-5.9-.7-8.9-1.1-4.1-.7-8.2-1.1-12.4-1.2-46.6 0-74 32.2-75.2 88.2v182.8h-46.5z"/></svg>