<svg xmlns="http://www.w3.org/2000/svg" viewBox="0 0 4507.2 1024.1" fill="#fff"><path d="M609.6 338.1l-33.9 82h248.6l-33.9-82L1042.8 466 790.4 593.8l33.9-82H575.7l33.6 82L356.2 466zM1101.5 922H296.3c-29.5-.1-53.3-24-53.4-53.4v-805c.1-29.5 24-53.3 53.4-53.4h805.1c29.5.1 53.3 24 53.4 53.4v805c0 29.4-23.9 53.3-53.3 53.4zM695.4 90.2C490.1 92 324.5 260.5 323 466c-1.5 209.3 166.4 375.6 375.8 375.8 205.7.1 372.2-171 375.8-375.8 3.7-211.7-167.4-377.6-379.2-375.8zm758.8 568.9v-315h-112.4v-73h316.4v73H1546v315zm283.5 9.9c-23.7 0-67.8-4.5-96.7-34.5-23.5-24.5-35.4-60.4-35.4-106.5 0-59.4 19.2-102.8 57.1-129.1 22.4-15 49.2-22.9 77.1-22.9 29.4 0 82.8 8.6 111.2 66.6 19.1 38.7 17.1 81 16.2 99.2l-.3 4.9H1690c.7 27.2 7.6 60.3 48.6 60.3 22.4 0 35.4-10.4 41-32.7l1-3.9h80.1l-.4 5.6c-.9 10.8-3 36-26.4 60.5-19.6 20.8-54.6 32.5-96.2 32.5zm40.1-181.1c-1-23.3-9.3-48.8-40.7-48.8-33.9 0-42.2 30.7-44.1 48.8h84.8zm218.5 177.5c-41.1 0-59.3-12.7-69.4-22.4-15.7-15.7-24.6-38.1-24.6-61.7 0-22.2 7.7-63 58.9-86.7 31.3-14.2 75.1-15 101.5-15.1-.1-13.6-.8-20.5-3.4-28.2-6.1-17.5-25.7-18.4-29.7-18.4-10.3 0-19.7 4.6-25 12.4-4.8 7.5-4.8 14.8-4.8 20.6v5.2h-86.3l.2-5.3c.5-13.3 1.6-44.4 32-66.2 20.7-14.9 48.6-22.4 83-22.4 25.1 0 71.1 4.6 97.9 35.7 19.5 23.6 19.5 57.1 19.5 68.1l.5 106.2c0 24.9 2 46.5 6.1 65.8l1.3 6.2h-80.8l-.7-4.4c-1.2-7.4-2-14.8-2.4-22.3-28.7 33-60.9 32.9-73.8 32.9zm56.1-131.3c-31.3 0-64.6 10.1-64.6 38.4 0 15.7 10.2 32.5 32.5 32.5 11.1-.1 21.7-4.9 29-13.4 11.7-14.4 13.2-32.2 13.4-57.2a182.35 182.35 0 0 0-10.3-.3zm489.5 125V498.8c0-32.7-6.7-54.4-39.3-54.4-39.3 0-42.4 33.6-42.4 77.4v137.3H2372V497.3c0-25.6-2.9-52.9-38.2-52.9-43.5 0-43.5 36.8-43.5 54.4v160.4h-88.2V439.7c0-14.7-.8-30.3-2.6-49.2l-.5-5.6h85.1l2 25.6c12.1-13.5 35-31.4 77.4-31.4 27.9 0 63.8 7.8 83.5 43.7 18.3-29.1 45.9-43.2 84.2-43.2 54.4 0 77.6 31.4 84.9 45 13.9 22.6 13.8 53.4 13.7 75.9V659l-87.9.1zm255.6 0l-141.8-387.5h48.2L2822 606l116.5-334.4h44.9l-140.1 387.5zm218.9 0V386.6h41.7v272.6h-41.7zm-2.6-338.1v-49.5h46.8V321h-46.8zm218.4 346c-83 0-120.1-72.4-120.1-144.2 0-69.5 38.2-144.2 122.2-144.2 80.5 0 124.8 53.8 124.8 151.5v5.2h-202.6c1.6 31.6 14.1 92.6 85.6 92.6 34.1 0 63.2-24.1 70.7-58.7l.9-4h43.7l-1.7 6.4c-16.5 64.2-56.9 95.4-123.5 95.4zm82.2-170.7c-5.4-50-34.2-78.5-79.5-78.5-49.1 0-71.7 41.1-76.8 78.5h156.3zm353.1 162.8l-77.4-217.6-78.9 217.6h-39.1l-99.9-272.5h45.5l75.3 212.3 76.3-212.3h44.4l74.1 209.9 72.7-209.9h45.5l-101.5 272.5zm269.6 7.9c-83 0-120.1-72.4-120.1-144.2 0-69.5 38.2-144.2 122.2-144.2 80.5 0 124.8 53.8 124.8 151.5v5.2h-202.6c1.6 31.6 14.1 92.6 85.6 92.6 34.1 0 63.2-24.1 70.8-58.7l.9-4h43.7l-1.7 6.4c-16.6 64.2-57 95.4-123.6 95.4zm82.2-170.7c-5.4-50-34.2-78.5-79.5-78.5-49.1 0-71.7 41.1-76.8 78.5h156.3zm103.9 162.8V450.8c.4-15.3-.7-31.3-1.7-45.2-.4-4.6-.6-9.2-.9-13.4l-.4-5.4h42.7l1 25.4c12.6-19.6 33.3-32.3 55.5-33.2 3.1-.2 6.2-.3 9.3-.3 7.5 0 15 .4 22.4.7l4.9.3.1 4.9v35.9l-5.6-.4c-2.6-.2-5.3-.6-7.9-1-3.7-.6-7.3-1-11-1.1-41.5 0-65.9 28.7-67 78.5v162.8l-41.4-.2z"/></svg>